<svg width="136" height="24" viewBox="0 0 136 24" fill="none" xmlns="http://www.w3.org/2000/svg">
<path d="M11.0489 2.92705C11.3483 2.00574 12.6517 2.00574 12.9511 2.92705L14.4697 7.60081C14.6035 8.01284 14.9875 8.2918 15.4207 8.2918H20.335C21.3037 8.2918 21.7065 9.53141 20.9228 10.1008L16.947 12.9894C16.5966 13.244 16.4499 13.6954 16.5838 14.1074L18.1024 18.7812C18.4017 19.7025 17.3472 20.4686 16.5635 19.8992L12.5878 17.0106C12.2373 16.756 11.7627 16.756 11.4122 17.0106L7.43648 19.8992C6.65276 20.4686 5.59828 19.7025 5.89763 18.7812L7.41623 14.1074C7.5501 13.6954 7.40345 13.244 7.05296 12.9894L3.07722 10.1008C2.29351 9.53141 2.69628 8.2918 3.66501 8.2918H8.57929C9.01252 8.2918 9.39647 8.01284 9.53035 7.60081L11.0489 2.92705Z" fill="#AB816C"/>
<path d="M124.476 3.08156L125.994 7.75532C126.195 8.37336 126.771 8.7918 127.421 8.7918H132.335C132.819 8.7918 133.021 9.4116 132.629 9.6963L128.653 12.5848C128.127 12.9668 127.907 13.6439 128.108 14.2619L129.627 18.9357C129.777 19.3963 129.249 19.7794 128.857 19.4947L124.882 16.6061C124.356 16.2242 123.644 16.2242 123.118 16.6061L119.143 19.4947C118.751 19.7794 118.223 19.3963 118.373 18.9357L119.892 14.2619C120.093 13.6439 119.873 12.9668 119.347 12.5848L115.371 9.6963C114.979 9.4116 115.181 8.7918 115.665 8.7918H120.579C121.229 8.7918 121.805 8.37335 122.006 7.75532L123.524 3.08156C123.674 2.6209 124.326 2.62091 124.476 3.08156Z" stroke="#AB816C"/>
<path d="M95.0489 2.92705C95.3483 2.00574 96.6517 2.00574 96.9511 2.92705L98.4697 7.60081C98.6035 8.01284 98.9875 8.2918 99.4207 8.2918H104.335C105.304 8.2918 105.706 9.53141 104.923 10.1008L100.947 12.9894C100.597 13.244 100.45 13.6954 100.584 14.1074L102.102 18.7812C102.402 19.7025 101.347 20.4686 100.564 19.8992L96.5878 17.0106C96.2373 16.756 95.7627 16.756 95.4122 17.0106L91.4365 19.8992C90.6528 20.4686 89.5983 19.7025 89.8976 18.7812L91.4162 14.1074C91.5501 13.6954 91.4034 13.244 91.053 12.9894L87.0772 10.1008C86.2935 9.53141 86.6963 8.2918 87.665 8.2918H92.5793C93.0125 8.2918 93.3965 8.01284 93.5303 7.60081L95.0489 2.92705Z" fill="#AB816C"/>
<path d="M67.0489 2.92705C67.3483 2.00574 68.6517 2.00574 68.9511 2.92705L70.4697 7.60081C70.6035 8.01284 70.9875 8.2918 71.4207 8.2918H76.335C77.3037 8.2918 77.7065 9.53141 76.9228 10.1008L72.947 12.9894C72.5966 13.244 72.4499 13.6954 72.5838 14.1074L74.1024 18.7812C74.4017 19.7025 73.3472 20.4686 72.5635 19.8992L68.5878 17.0106C68.2373 16.756 67.7627 16.756 67.4122 17.0106L63.4365 19.8992C62.6528 20.4686 61.5983 19.7025 61.8976 18.7812L63.4162 14.1074C63.5501 13.6954 63.4034 13.244 63.053 12.9894L59.0772 10.1008C58.2935 9.53141 58.6963 8.2918 59.665 8.2918H64.5793C65.0125 8.2918 65.3965 8.01284 65.5303 7.60081L67.0489 2.92705Z" fill="#AB816C"/>
<path d="M39.0489 2.92705C39.3483 2.00574 40.6517 2.00574 40.9511 2.92705L42.4697 7.60081C42.6035 8.01284 42.9875 8.2918 43.4207 8.2918H48.335C49.3037 8.2918 49.7065 9.53141 48.9228 10.1008L44.947 12.9894C44.5966 13.244 44.4499 13.6954 44.5838 14.1074L46.1024 18.7812C46.4017 19.7025 45.3472 20.4686 44.5635 19.8992L40.5878 17.0106C40.2373 16.756 39.7627 16.756 39.4122 17.0106L35.4365 19.8992C34.6528 20.4686 33.5983 19.7025 33.8976 18.7812L35.4162 14.1074C35.5501 13.6954 35.4034 13.244 35.053 12.9894L31.0772 10.1008C30.2935 9.53141 30.6963 8.2918 31.665 8.2918H36.5793C37.0125 8.2918 37.3965 8.01284 37.5303 7.60081L39.0489 2.92705Z" fill="#AB816C"/>
</svg>
